<?xml version="1.0" standalone="no"?>
<!DOCTYPE svg PUBLIC "-//W3C//DTD SVG 20010904//EN"
 "http://www.w3.org/TR/2001/REC-SVG-20010904/DTD/svg10.dtd">
<svg version="1.0" xmlns="http://www.w3.org/2000/svg"
 width="590.000000pt" height="590.000000pt" viewBox="0 0 590.000000 590.000000"
 preserveAspectRatio="xMidYMid meet">
<metadata>
Created by potrace 1.14, written by Peter Selinger 2001-2017
</metadata>
<g transform="translate(0.000000,590.000000) scale(0.100000,-0.100000)"
fill="#000000" stroke="none">
<path d="M2870 5864 c-30 -8 -72 -25 -95 -38 -227 -129 -669 -384 -700 -403
-39 -24 -251 -147 -765 -443 -140 -81 -282 -163 -315 -182 -33 -20 -125 -73
-205 -118 -257 -146 -269 -154 -315 -199 -24 -23 -57 -68 -72 -100 l-28 -56
-3 -1358 c-3 -1497 -6 -1412 59 -1507 17 -25 50 -59 72 -76 34 -26 279 -170
472 -279 22 -12 128 -73 235 -135 107 -62 220 -127 250 -145 30 -17 74 -43 97
-58 24 -15 45 -27 47 -27 2 0 42 -22 88 -49 45 -26 234 -135 418 -241 184
-106 398 -230 475 -275 246 -145 256 -149 361 -150 106 0 110 2 419 181 105
61 330 191 500 288 171 98 330 191 355 206 25 15 77 45 115 67 39 22 117 67
175 101 58 33 278 160 489 281 211 122 395 230 409 241 44 35 81 93 102 159
20 62 20 89 20 1396 0 1313 0 1334 -20 1399 -27 88 -93 157 -215 227 -144 82
-542 312 -640 369 -49 29 -119 69 -155 90 -36 20 -155 88 -265 152 -110 64
-216 125 -235 135 -19 11 -75 44 -125 73 -49 28 -169 97 -265 152 -96 55 -179
104 -185 108 -5 4 -30 19 -55 33 -25 13 -97 55 -160 92 -63 37 -131 73 -150
80 -61 22 -131 25 -190 9z m146 -456 c185 -223 381 -512 482 -713 86 -172 162
-406 183 -562 26 -194 -7 -413 -84 -557 -44 -83 -135 -177 -224 -232 -75 -47
-233 -105 -325 -118 l-48 -7 0 -249 c0 -137 -4 -260 -10 -274 -14 -37 -66 -37
-80 0 -6 14 -10 136 -10 273 l0 248 -65 11 c-298 55 -499 215 -582 462 -123
366 1 831 361 1360 99 144 322 430 336 430 3 0 33 -33 66 -72z m-667 -2982
c97 -33 149 -65 223 -140 265 -267 230 -743 -74 -973 -116 -88 -259 -118 -529
-111 -176 5 -183 6 -201 28 -18 22 -19 49 -16 607 3 565 4 585 22 599 16 11
69 14 262 14 229 0 246 -1 313 -24z m653 4 c4 -8 121 -243 258 -522 138 -280
254 -508 258 -508 4 0 61 109 126 243 273 554 385 778 396 792 18 21 54 18 76
-6 18 -20 19 -42 16 -603 -4 -630 -3 -616 -58 -616 -53 0 -54 6 -55 505 l0
460 -23 -50 c-111 -242 -433 -891 -449 -904 -10 -8 -27 -11 -43 -7 -22 6 -40
37 -126 214 -55 114 -160 326 -232 472 l-131 265 -5 -468 c-5 -507 -3 -490
-60 -485 -50 6 -50 9 -47 629 2 631 0 613 60 607 17 -2 34 -10 39 -18z"/>
<path d="M2828 5193 c-53 -70 -133 -183 -177 -251 -79 -118 -221 -376 -221
-400 0 -7 14 -12 32 -12 26 0 45 -14 114 -84 73 -74 87 -84 118 -84 39 0 45 8
21 28 -12 10 -15 38 -15 134 0 115 -1 124 -23 144 -13 12 -33 22 -44 22 -22 0
-53 24 -53 41 0 47 69 69 90 28 6 -11 9 -25 7 -32 -2 -7 9 -27 24 -45 28 -32
29 -35 29 -150 l0 -118 53 -57 c53 -57 89 -72 101 -42 4 11 21 15 66 15 45 0
62 -4 66 -15 11 -28 44 -15 94 37 l50 52 0 75 0 74 -21 -27 c-15 -19 -30 -26
-54 -26 -24 0 -39 7 -54 26 -27 35 -26 56 4 92 24 28 25 37 25 149 l0 119 -45
44 -45 44 0 -218 0 -219 25 -23 c49 -45 20 -124 -45 -124 -65 0 -98 91 -45
126 l25 16 0 321 0 321 -50 -49 -50 -49 0 -185 c0 -184 0 -185 24 -206 23 -19
30 -37 27 -77 -3 -49 -96 -68 -125 -26 -24 34 -19 67 14 98 l30 28 0 193 0
193 66 67 c64 64 65 67 62 113 l-3 47 -97 -128z"/>
<path d="M2970 5173 l0 -149 65 -64 65 -64 0 -124 0 -124 30 -28 30 -28 0 73
c0 53 4 76 15 85 9 7 13 20 10 28 -9 23 22 62 50 62 57 0 59 -93 3 -95 -47 -2
-48 -7 -48 -185 l0 -168 -70 -71 c-38 -39 -76 -71 -85 -71 -8 0 -15 -4 -15
-10 0 -5 9 -10 20 -10 16 0 20 -7 20 -30 0 -23 -5 -30 -19 -30 -11 0 -23 -4
-26 -10 -4 -6 5 -10 19 -10 14 0 26 -4 26 -10 0 -5 25 -10 55 -10 53 0 55 1
110 59 56 58 57 58 127 64 44 4 77 12 88 22 34 31 87 -5 76 -50 -9 -35 -50
-44 -80 -16 -17 16 -35 21 -76 21 -52 0 -55 -2 -112 -60 -58 -58 -61 -60 -113
-60 -64 0 -115 -9 -115 -21 0 -5 9 -9 20 -9 11 0 20 -4 20 -10 0 -6 70 -10
191 -10 183 0 191 1 208 22 36 44 105 -12 74 -61 -14 -22 -57 -26 -73 -7 -10
14 -45 16 -226 16 -191 0 -253 -7 -194 -23 14 -3 20 -14 20 -31 0 -19 -5 -26
-20 -26 -11 0 -20 -4 -20 -10 0 -5 8 -10 18 -10 10 0 42 -25 72 -55 l54 -55
81 0 c74 0 84 -2 105 -25 13 -14 30 -23 38 -20 38 14 70 -39 45 -74 -28 -41
-83 -21 -83 29 0 47 -27 60 -123 60 l-86 0 -37 45 c-45 55 -78 61 -88 15 l-6
-31 -62 3 c-60 3 -63 4 -66 31 -6 51 -41 35 -135 -63 l-87 -90 -64 0 c-44 0
-67 -5 -76 -15 -15 -18 -51 -20 -68 -3 -35 35 14 102 57 78 12 -6 21 -14 21
-18 0 -5 28 -7 61 -6 l62 2 96 96 c53 53 104 96 114 96 9 0 17 5 17 10 0 6 -9
10 -20 10 -15 0 -20 7 -20 26 0 17 6 28 20 31 11 3 20 9 20 14 0 10 10 10
-235 9 -151 -1 -193 -4 -205 -15 -33 -30 -80 -12 -80 30 0 25 29 55 53 55 9 0
22 -9 29 -20 12 -19 24 -20 205 -20 122 0 193 4 193 10 0 6 9 10 20 10 11 0
20 4 20 9 0 11 -50 21 -109 21 -45 0 -48 2 -146 100 -55 55 -105 100 -111 100
-6 0 -19 -9 -29 -20 -24 -27 -55 -22 -74 12 -14 24 -14 28 3 47 22 25 49 27
69 6 8 -7 26 -17 39 -20 14 -4 67 -49 119 -101 88 -88 96 -94 135 -94 54 0
104 10 104 21 0 5 -9 9 -20 9 -16 0 -20 7 -20 30 0 23 4 30 20 30 11 0 20 5
20 10 0 6 -8 10 -17 10 -10 0 -38 21 -63 48 -25 26 -42 43 -37 38 4 -6 7 -24
7 -41 0 -38 -35 -75 -71 -75 -37 0 -71 41 -67 79 2 27 -7 41 -77 111 -67 67
-85 80 -112 80 -40 0 -51 -21 -93 -185 -50 -189 -62 -377 -32 -488 l7 -28 40
41 39 40 116 0 116 0 -4 34 c-5 43 25 76 68 76 59 0 90 -67 54 -118 -13 -19
-24 -23 -55 -21 -21 2 -44 -2 -51 -9 -8 -8 -49 -12 -123 -12 l-111 0 -39 -40
-39 -40 17 -53 c20 -64 87 -163 143 -211 87 -74 248 -141 387 -161 42 -6 47
-4 47 13 0 11 -29 56 -65 101 -56 69 -65 86 -65 121 0 39 -1 40 -34 40 -40 0
-76 37 -76 77 0 34 42 73 80 73 52 0 95 -64 71 -108 -25 -47 -13 -94 39 -161
l50 -65 0 94 c0 90 -1 95 -27 116 -21 16 -27 30 -27 59 0 64 68 97 122 59 33
-22 31 -87 -3 -119 -24 -21 -26 -29 -23 -90 l3 -66 42 40 c32 31 50 41 76 41
23 0 40 8 55 25 31 35 83 34 112 -2 25 -32 20 -69 -12 -95 -32 -28 -74 -23
-100 12 -12 17 -31 30 -42 30 -11 0 -46 -25 -78 -57 -53 -52 -58 -61 -58 -100
0 -49 4 -50 92 -32 263 54 424 178 490 377 27 81 26 82 -40 82 l-58 0 -74 75
c-41 41 -80 75 -86 75 -6 0 -19 -11 -28 -25 -21 -32 -84 -35 -111 -5 -26 29
-24 79 4 102 35 28 75 23 104 -12 14 -16 35 -30 47 -30 14 0 47 -26 90 -70
l68 -70 56 0 c52 0 56 2 63 28 5 15 8 83 7 152 -1 197 -53 395 -161 618 l-46
93 -28 -27 -29 -28 0 -135 0 -135 -32 -33 c-25 -26 -32 -41 -30 -66 2 -21 -4
-42 -16 -57 -39 -48 -124 -17 -124 46 0 38 46 78 82 70 21 -4 34 2 59 28 l31
32 0 139 0 139 32 33 31 33 -28 52 c-57 105 -233 359 -342 491 l-23 29 0 -149z"/>
<path d="M2786 4654 c-9 -8 -16 -22 -16 -29 0 -17 27 -45 44 -45 15 0 46 32
46 48 0 15 -29 42 -45 42 -7 0 -21 -7 -29 -16z"/>
<path d="M3057 4602 c-32 -35 -11 -77 35 -70 30 4 38 56 12 75 -23 17 -28 16
-47 -5z"/>
<path d="M2917 4494 c-15 -15 -7 -63 13 -74 33 -17 62 4 58 43 -3 27 -7 32
-33 35 -17 2 -34 0 -38 -4z"/>
<path d="M2669 4319 c-18 -18 -19 -23 -6 -42 8 -12 22 -23 31 -25 42 -9 64 58
27 78 -26 13 -28 13 -52 -11z"/>
<path d="M3170 4306 c-6 -8 -10 -25 -8 -38 4 -31 62 -39 77 -10 21 40 -39 83
-69 48z"/>
<path d="M3182 3978 c-17 -17 -15 -53 3 -68 12 -10 21 -10 40 -2 40 19 29 82
-15 82 -9 0 -21 -5 -28 -12z"/>
<path d="M2678 3949 c-22 -13 -24 -67 -3 -75 8 -4 26 -3 40 0 20 5 25 13 25
36 0 19 -7 33 -19 40 -23 12 -22 12 -43 -1z"/>
<path d="M2920 3712 c-18 -14 -21 -25 -16 -45 8 -35 49 -46 76 -22 25 23 25
40 0 65 -25 25 -32 25 -60 2z"/>
<path d="M2736 3694 c-34 -34 -9 -78 41 -72 24 3 28 8 31 37 5 49 -38 70 -72
35z"/>
<path d="M3184 3562 c-18 -12 -24 -42 -14 -63 12 -21 50 -25 68 -7 34 34 -14
97 -54 70z"/>
<path d="M1870 1830 l0 -510 188 0 c210 0 263 10 342 60 146 94 240 275 240
460 -1 95 -12 144 -56 239 -39 85 -82 134 -166 192 -85 58 -141 69 -360 69
l-188 0 0 -510z"/>
</g>
</svg>
